<svg width="2000px" height="754px"
 viewBox="0.00 0.00 1801.72 678.75" xmlns="http://www.w3.org/2000/svg" xmlns:xlink="http://www.w3.org/1999/xlink">
<g id="graph0" class="graph" transform="scale(1.0 1.0) rotate(0) translate(4 674.75)">
<title>ContextMapGraph</title>
<polygon fill="white" stroke="transparent" points="-4,4 -4,-674.75 1797.72,-674.75 1797.72,4 -4,4"/>
<!-- CartManagementContext -->
<g id="node1" class="node">
<title>CartManagementContext</title>
<polygon fill="none" stroke="black" stroke-width="2" points="807.95,-158.29 817.11,-160.02 825.92,-161.83 834.35,-163.72 842.34,-165.69 849.88,-167.71 856.93,-169.8 863.46,-171.93 869.45,-174.11 874.87,-176.32 879.69,-178.56 883.9,-180.82 887.49,-183.1 890.44,-185.38 892.74,-187.66 894.39,-189.94 895.37,-192.21 895.7,-194.46 895.38,-196.69 894.41,-198.89 892.8,-201.06 890.56,-203.2 887.71,-205.29 884.27,-207.33 880.26,-209.32 875.7,-211.26 870.61,-213.15 865.02,-214.97 858.97,-216.74 852.47,-218.43 845.57,-220.06 838.29,-221.62 830.66,-223.1 822.73,-224.51 814.52,-225.85 806.07,-227.1 797.42,-228.28 788.59,-229.37 779.62,-230.38 770.55,-231.31 761.4,-232.15 752.2,-232.9 742.99,-233.56 733.8,-234.14 724.64,-234.62 715.54,-235 706.53,-235.3 697.64,-235.49 688.87,-235.6 680.25,-235.6 671.8,-235.5 663.52,-235.3 655.45,-235.01 647.57,-234.61 639.92,-234.11 632.49,-233.5 625.29,-232.79 618.33,-231.98 611.63,-231.07 605.17,-230.05 598.97,-228.94 593.03,-227.72 587.35,-226.4 581.94,-224.98 576.79,-223.47 571.91,-221.86 567.31,-220.16 562.98,-218.37 558.93,-216.5 555.16,-214.55 551.68,-212.52 548.48,-210.42 545.58,-208.25 542.98,-206.02 540.68,-203.73 538.69,-201.4 537.01,-199.02 535.66,-196.61 534.65,-194.17 533.97,-191.71 533.65,-189.24 533.68,-186.76 534.08,-184.28 534.86,-181.82 536.02,-179.38 537.58,-176.96 539.53,-174.59 541.9,-172.25 544.68,-169.98 547.88,-167.76 551.51,-165.62 555.57,-163.55 560.06,-161.58 564.99,-159.69 570.34,-157.91 576.13,-156.23 582.34,-154.67 588.96,-153.23 595.99,-151.92 603.42,-150.73 611.23,-149.68 619.41,-148.77 627.94,-148 636.79,-147.37 645.95,-146.89 655.39,-146.56 665.08,-146.37 674.99,-146.33 685.1,-146.44 695.37,-146.7 705.75,-147.1 716.23,-147.65 726.76,-148.33 737.29,-149.15 747.8,-150.1 758.24,-151.18 768.57,-152.38 778.74,-153.69 788.73,-155.12 798.48,-156.66 807.95,-158.29"/>
<text text-anchor="middle" x="701" y="-189.43" font-family="sans-serif" font-size="16.00">CartManagementContext</text>
</g>
<!-- OrderProcessingContext -->
<g id="node2" class="node">
<title>OrderProcessingContext</title>
<polygon fill="none" stroke="black" stroke-width="2" points="863.65,-36.45 866.93,-39.18 869.74,-41.93 872.06,-44.68 873.89,-47.43 875.22,-50.16 876.03,-52.86 876.33,-55.53 876.1,-58.16 875.34,-60.73 874.06,-63.23 872.26,-65.66 869.93,-68.01 867.08,-70.28 863.72,-72.45 859.86,-74.51 855.51,-76.48 850.68,-78.33 845.4,-80.07 839.66,-81.69 833.5,-83.2 826.94,-84.58 819.99,-85.84 812.68,-86.97 805.03,-87.98 797.07,-88.87 788.83,-89.63 780.34,-90.27 771.62,-90.8 762.7,-91.2 753.61,-91.5 744.39,-91.68 735.07,-91.75 725.67,-91.72 716.23,-91.58 706.78,-91.35 697.35,-91.02 687.96,-90.6 678.66,-90.1 669.46,-89.51 660.4,-88.84 651.5,-88.09 642.79,-87.27 634.29,-86.38 626.03,-85.42 618.04,-84.4 610.32,-83.31 602.91,-82.16 595.81,-80.96 589.06,-79.69 582.66,-78.37 576.62,-77 570.96,-75.58 565.7,-74.1 560.84,-72.58 556.38,-71 552.35,-69.38 548.73,-67.71 545.54,-65.99 542.78,-64.23 540.45,-62.42 538.55,-60.57 537.08,-58.68 536.05,-56.75 535.43,-54.78 535.25,-52.78 535.48,-50.74 536.13,-48.67 537.18,-46.58 538.64,-44.46 540.49,-42.32 542.74,-40.16 545.36,-38 548.36,-35.83 551.71,-33.66 555.43,-31.5 559.48,-29.35 563.87,-27.22 568.59,-25.11 573.62,-23.04 578.95,-21.01 584.57,-19.03 590.48,-17.1 596.65,-15.24 603.08,-13.45 609.75,-11.74 616.65,-10.12 623.77,-8.6 631.09,-7.18 638.6,-5.88 646.28,-4.69 654.12,-3.63 662.11,-2.71 670.22,-1.92 678.44,-1.27 686.76,-0.78 695.14,-0.44 703.58,-0.26 712.06,-0.23 720.56,-0.37 729.05,-0.68 737.51,-1.15 745.93,-1.78 754.28,-2.58 762.53,-3.54 770.68,-4.65 778.69,-5.93 786.54,-7.35 794.2,-8.92 801.66,-10.64 808.89,-12.48 815.87,-14.46 822.57,-16.55 828.97,-18.75 835.06,-21.06 840.8,-23.45 846.17,-25.93 851.16,-28.48 855.75,-31.09 859.92,-33.75 863.65,-36.45"/>
<text text-anchor="middle" x="701" y="-44.97" font-family="sans-serif" font-size="16.00">OrderProcessingContext</text>
</g>
<!-- CartManagementContext&#45;&gt;OrderProcessingContext -->
<g id="edge1" class="edge">
<title>CartManagementContext&#45;&gt;OrderProcessingContext</title>
<path fill="none" stroke="black" stroke-width="2" d="M701,-146.76C701,-129.01 701,-108.79 701,-91.42"/>
<text text-anchor="middle" x="776.5" y="-118.93" font-family="sans-serif" font-size="12.00"> &#160;&#160;&#160;&#160;&#160;&#160;&#160;&#160;&#160;&#160;&#160;&#160;&#160;&#160;&#160;&#160;&#160;&#160;&#160;&#160;&#160;&#160;&#160;&#160;&#160;&#160;&#160;&#160;&#160;&#160;&#160;&#160;&#160;&#160;&#160;&#160;&#160;&#160;&#160;</text>
<polygon fill="white" stroke="transparent" points="682,-81.42 682,-100.42 698,-100.42 698,-81.42 682,-81.42"/>
<polyline fill="none" stroke="black" points="698,-81.42 698,-100.42 "/>
<text text-anchor="start" x="685" y="-87.82" font-family="sans-serif" font-size="12.00">D</text>
<polygon fill="white" stroke="transparent" points="698,-81.42 698,-100.42 720,-100.42 720,-81.42 698,-81.42"/>
<polygon fill="none" stroke="black" points="698,-81.42 698,-100.42 720,-100.42 720,-81.42 698,-81.42"/>
<text text-anchor="start" x="701" y="-87.82" font-family="sans-serif" font-size="12.00">CF</text>
<polygon fill="white" stroke="transparent" points="666,-136.76 666,-155.76 682,-155.76 682,-136.76 666,-136.76"/>
<polyline fill="none" stroke="black" points="682,-136.76 682,-155.76 "/>
<text text-anchor="start" x="669" y="-143.16" font-family="sans-serif" font-size="12.00">U</text>
<polygon fill="white" stroke="transparent" points="682,-136.76 682,-155.76 737,-155.76 737,-136.76 682,-136.76"/>
<polygon fill="none" stroke="black" points="682,-136.76 682,-155.76 737,-155.76 737,-136.76 682,-136.76"/>
<text text-anchor="start" x="685" y="-143.16" font-family="sans-serif" font-size="12.00">OHS, PL</text>
</g>
<!-- CustomerManagementContext -->
<g id="node3" class="node">
<title>CustomerManagementContext</title>
<polygon fill="none" stroke="black" stroke-width="2" points="191.06,-319.85 196.28,-317.2 201.99,-314.62 208.17,-312.11 214.8,-309.68 221.84,-307.36 229.29,-305.13 237.11,-303.03 245.28,-301.04 253.77,-299.19 262.55,-297.47 271.61,-295.9 280.91,-294.47 290.43,-293.2 300.14,-292.09 310.01,-291.14 320.02,-290.35 330.14,-289.73 340.34,-289.27 350.6,-288.98 360.9,-288.84 371.21,-288.88 381.5,-289.07 391.75,-289.41 401.94,-289.91 412.05,-290.55 422.04,-291.34 431.91,-292.26 441.63,-293.31 451.17,-294.49 460.53,-295.78 469.67,-297.18 478.58,-298.68 487.23,-300.27 495.62,-301.95 503.73,-303.71 511.53,-305.53 519,-307.42 526.14,-309.36 532.93,-311.35 539.35,-313.38 545.38,-315.44 551.01,-317.53 556.23,-319.63 561.02,-321.75 565.37,-323.87 569.26,-326 572.69,-328.12 575.65,-330.23 578.11,-332.33 580.08,-334.42 581.55,-336.48 582.5,-338.52 582.93,-340.54 582.84,-342.53 582.22,-344.49 581.06,-346.41 579.36,-348.3 577.13,-350.16 574.36,-351.98 571.05,-353.76 567.21,-355.5 562.84,-357.21 557.96,-358.87 552.56,-360.49 546.65,-362.06 540.26,-363.6 533.38,-365.08 526.05,-366.52 518.26,-367.91 510.05,-369.25 501.43,-370.54 492.42,-371.77 483.05,-372.94 473.35,-374.05 463.33,-375.1 453.02,-376.08 442.47,-376.99 431.69,-377.83 420.72,-378.59 409.59,-379.26 398.34,-379.85 387,-380.35 375.6,-380.76 364.19,-381.07 352.79,-381.27 341.45,-381.37 330.2,-381.35 319.08,-381.22 308.12,-380.98 297.36,-380.61 286.84,-380.12 276.59,-379.5 266.64,-378.75 257.02,-377.88 247.78,-376.87 238.93,-375.73 230.5,-374.47 222.53,-373.07 215.04,-371.54 208.05,-369.89 201.58,-368.12 195.66,-366.23 190.29,-364.22 185.5,-362.1 181.3,-359.88 177.7,-357.56 174.7,-355.15 172.32,-352.66 170.56,-350.1 169.42,-347.47 168.9,-344.78 169,-342.05 169.71,-339.29 171.03,-336.49 172.95,-333.69 175.45,-330.88 178.53,-328.08 182.17,-325.3 186.35,-322.56 191.06,-319.85"/>
<text text-anchor="middle" x="380" y="-333.7" font-family="sans-serif" font-size="16.00">CustomerManagementContext</text>
</g>
<!-- CustomerManagementContext&#45;&gt;CartManagementContext -->
<g id="edge2" class="edge">
<title>CustomerManagementContext&#45;&gt;CartManagementContext</title>
<path fill="none" stroke="black" stroke-width="2" d="M415.06,-290.65C426.32,-278.49 439.64,-266.41 454,-257.92 474.63,-245.72 521.98,-232.45 569.76,-221.2"/>
<text text-anchor="middle" x="529.5" y="-261.32" font-family="sans-serif" font-size="12.00"> &#160;&#160;&#160;&#160;&#160;&#160;&#160;&#160;&#160;&#160;&#160;&#160;&#160;&#160;&#160;&#160;&#160;&#160;&#160;&#160;&#160;&#160;&#160;&#160;&#160;&#160;&#160;&#160;&#160;&#160;&#160;&#160;&#160;&#160;&#160;&#160;&#160;&#160;&#160;</text>
<polygon fill="white" stroke="transparent" points="550.76,-211.2 550.76,-230.2 566.76,-230.2 566.76,-211.2 550.76,-211.2"/>
<polyline fill="none" stroke="black" points="566.76,-211.2 566.76,-230.2 "/>
<text text-anchor="start" x="553.76" y="-217.6" font-family="sans-serif" font-size="12.00">D</text>
<polygon fill="white" stroke="transparent" points="566.76,-211.2 566.76,-230.2 588.76,-230.2 588.76,-211.2 566.76,-211.2"/>
<polygon fill="none" stroke="black" points="566.76,-211.2 566.76,-230.2 588.76,-230.2 588.76,-211.2 566.76,-211.2"/>
<text text-anchor="start" x="569.76" y="-217.6" font-family="sans-serif" font-size="12.00">CF</text>
<polygon fill="white" stroke="transparent" points="380.06,-280.65 380.06,-299.65 396.06,-299.65 396.06,-280.65 380.06,-280.65"/>
<polyline fill="none" stroke="black" points="396.06,-280.65 396.06,-299.65 "/>
<text text-anchor="start" x="383.06" y="-287.05" font-family="sans-serif" font-size="12.00">U</text>
<polygon fill="white" stroke="transparent" points="396.06,-280.65 396.06,-299.65 451.06,-299.65 451.06,-280.65 396.06,-280.65"/>
<polygon fill="none" stroke="black" points="396.06,-280.65 396.06,-299.65 451.06,-299.65 451.06,-280.65 396.06,-280.65"/>
<text text-anchor="start" x="399.06" y="-287.05" font-family="sans-serif" font-size="12.00">OHS, PL</text>
</g>
<!-- CustomerManagementContext&#45;&gt;OrderProcessingContext -->
<g id="edge3" class="edge">
<title>CustomerManagementContext&#45;&gt;OrderProcessingContext</title>
<path fill="none" stroke="black" stroke-width="2" d="M352.8,-288.77C333.1,-247.17 314.88,-187.27 346,-146.53 372.22,-112.2 469.83,-87.14 556.07,-71.13"/>
<text text-anchor="middle" x="421.5" y="-190.13" font-family="sans-serif" font-size="12.00"> &#160;&#160;&#160;&#160;&#160;&#160;&#160;&#160;&#160;&#160;&#160;&#160;&#160;&#160;&#160;&#160;&#160;&#160;&#160;&#160;&#160;&#160;&#160;&#160;&#160;&#160;&#160;&#160;&#160;&#160;&#160;&#160;&#160;&#160;&#160;&#160;&#160;&#160;&#160;</text>
<polygon fill="white" stroke="transparent" points="537.07,-61.13 537.07,-80.13 553.07,-80.13 553.07,-61.13 537.07,-61.13"/>
<polyline fill="none" stroke="black" points="553.07,-61.13 553.07,-80.13 "/>
<text text-anchor="start" x="540.07" y="-67.53" font-family="sans-serif" font-size="12.00">D</text>
<polygon fill="white" stroke="transparent" points="553.07,-61.13 553.07,-80.13 575.07,-80.13 575.07,-61.13 553.07,-61.13"/>
<polygon fill="none" stroke="black" points="553.07,-61.13 553.07,-80.13 575.07,-80.13 575.07,-61.13 553.07,-61.13"/>
<text text-anchor="start" x="556.07" y="-67.53" font-family="sans-serif" font-size="12.00">CF</text>
<polygon fill="white" stroke="transparent" points="317.8,-278.77 317.8,-297.77 333.8,-297.77 333.8,-278.77 317.8,-278.77"/>
<polyline fill="none" stroke="black" points="333.8,-278.77 333.8,-297.77 "/>
<text text-anchor="start" x="320.8" y="-285.17" font-family="sans-serif" font-size="12.00">U</text>
<polygon fill="white" stroke="transparent" points="333.8,-278.77 333.8,-297.77 388.8,-297.77 388.8,-278.77 333.8,-278.77"/>
<polygon fill="none" stroke="black" points="333.8,-278.77 333.8,-297.77 388.8,-297.77 388.8,-278.77 333.8,-278.77"/>
<text text-anchor="start" x="336.8" y="-285.17" font-family="sans-serif" font-size="12.00">OHS, PL</text>
</g>
<!-- EventSourcingContext -->
<g id="node4" class="node">
<title>EventSourcingContext</title>
<polygon fill="none" stroke="black" stroke-width="2" points="558.27,-602.97 562.63,-600.35 567.37,-597.81 572.46,-595.34 577.89,-592.96 583.63,-590.68 589.66,-588.51 595.97,-586.46 602.53,-584.53 609.32,-582.74 616.33,-581.08 623.52,-579.58 630.89,-578.22 638.4,-577.02 646.04,-575.98 653.79,-575.1 661.62,-574.38 669.52,-573.83 677.46,-573.45 685.43,-573.23 693.4,-573.18 701.36,-573.28 709.28,-573.55 717.16,-573.97 724.97,-574.55 732.69,-575.27 740.32,-576.13 747.83,-577.13 755.2,-578.25 762.42,-579.5 769.49,-580.86 776.37,-582.33 783.06,-583.9 789.55,-585.56 795.82,-587.31 801.86,-589.13 807.66,-591.02 813.19,-592.96 818.46,-594.96 823.45,-597.01 828.16,-599.09 832.55,-601.2 836.64,-603.33 840.41,-605.47 843.84,-607.63 846.93,-609.79 849.67,-611.95 852.05,-614.1 854.07,-616.24 855.71,-618.36 856.97,-620.46 857.84,-622.54 858.32,-624.6 858.39,-626.62 858.07,-628.61 857.34,-630.56 856.2,-632.48 854.65,-634.37 852.69,-636.21 850.32,-638.01 847.54,-639.77 844.36,-641.49 840.77,-643.16 836.78,-644.79 832.4,-646.37 827.64,-647.91 822.51,-649.39 817.01,-650.83 811.16,-652.22 804.97,-653.55 798.46,-654.83 791.63,-656.06 784.52,-657.22 777.13,-658.33 769.49,-659.37 761.62,-660.35 753.54,-661.25 745.27,-662.08 736.83,-662.84 728.26,-663.52 719.58,-664.11 710.81,-664.62 701.99,-665.04 693.13,-665.36 684.27,-665.58 675.44,-665.7 666.67,-665.71 657.98,-665.61 649.41,-665.4 640.97,-665.07 632.71,-664.62 624.64,-664.05 616.8,-663.36 609.2,-662.53 601.89,-661.59 594.87,-660.51 588.18,-659.3 581.83,-657.97 575.85,-656.51 570.25,-654.93 565.06,-653.22 560.29,-651.4 555.95,-649.46 552.06,-647.41 548.63,-645.25 545.66,-642.99 543.17,-640.64 541.16,-638.21 539.64,-635.7 538.6,-633.11 538.06,-630.47 537.99,-627.78 538.41,-625.04 539.31,-622.28 540.68,-619.49 542.52,-616.7 544.81,-613.9 547.54,-611.12 550.7,-608.36 554.28,-605.64 558.27,-602.97"/>
<text text-anchor="middle" x="702" y="-618.26" font-family="sans-serif" font-size="16.00">EventSourcingContext</text>
</g>
<!-- EventSourcingContext&#45;&gt;CartManagementContext -->
<g id="edge4" class="edge">
<title>EventSourcingContext&#45;&gt;CartManagementContext</title>
<path fill="none" stroke="black" stroke-width="2" d="M678.52,-573.29C649.68,-508.08 608.05,-387.99 638,-288.92 643.71,-270.02 654.58,-251.44 665.69,-235.81"/>
<text text-anchor="middle" x="707.5" y="-407.48" font-family="sans-serif" font-size="12.00"> &#160;&#160;&#160;&#160;&#160;&#160;&#160;&#160;&#160;&#160;&#160;&#160;&#160;&#160;&#160;&#160;&#160;&#160;&#160;&#160;&#160;&#160;&#160;&#160;&#160;&#160;&#160;&#160;&#160;&#160;&#160;&#160;&#160;&#160;&#160;&#160;&#160;&#160;&#160;</text>
<polygon fill="white" stroke="transparent" points="646.69,-225.81 646.69,-244.81 662.69,-244.81 662.69,-225.81 646.69,-225.81"/>
<polyline fill="none" stroke="black" points="662.69,-225.81 662.69,-244.81 "/>
<text text-anchor="start" x="649.69" y="-232.21" font-family="sans-serif" font-size="12.00">D</text>
<polygon fill="white" stroke="transparent" points="662.69,-225.81 662.69,-244.81 684.69,-244.81 684.69,-225.81 662.69,-225.81"/>
<polygon fill="none" stroke="black" points="662.69,-225.81 662.69,-244.81 684.69,-244.81 684.69,-225.81 662.69,-225.81"/>
<text text-anchor="start" x="665.69" y="-232.21" font-family="sans-serif" font-size="12.00">CF</text>
<polygon fill="white" stroke="transparent" points="643.52,-563.29 643.52,-582.29 659.52,-582.29 659.52,-563.29 643.52,-563.29"/>
<polyline fill="none" stroke="black" points="659.52,-563.29 659.52,-582.29 "/>
<text text-anchor="start" x="646.52" y="-569.69" font-family="sans-serif" font-size="12.00">U</text>
<polygon fill="white" stroke="transparent" points="659.52,-563.29 659.52,-582.29 714.52,-582.29 714.52,-563.29 659.52,-563.29"/>
<polygon fill="none" stroke="black" points="659.52,-563.29 659.52,-582.29 714.52,-582.29 714.52,-563.29 659.52,-563.29"/>
<text text-anchor="start" x="662.52" y="-569.69" font-family="sans-serif" font-size="12.00">OHS, PL</text>
</g>
<!-- EventSourcingContext&#45;&gt;OrderProcessingContext -->
<g id="edge5" class="edge">
<title>EventSourcingContext&#45;&gt;OrderProcessingContext</title>
<path fill="none" stroke="black" stroke-width="2" d="M540.07,-620.57C332.75,-615.48 0,-590.25 0,-480.72 0,-480.72 0,-480.72 0,-192.23 0,-83.48 328.05,-56.85 535.32,-50.88"/>
<text text-anchor="middle" x="75.5" y="-334.4" font-family="sans-serif" font-size="12.00"> &#160;&#160;&#160;&#160;&#160;&#160;&#160;&#160;&#160;&#160;&#160;&#160;&#160;&#160;&#160;&#160;&#160;&#160;&#160;&#160;&#160;&#160;&#160;&#160;&#160;&#160;&#160;&#160;&#160;&#160;&#160;&#160;&#160;&#160;&#160;&#160;&#160;&#160;&#160;</text>
<polygon fill="white" stroke="transparent" points="516.32,-40.88 516.32,-59.88 532.32,-59.88 532.32,-40.88 516.32,-40.88"/>
<polyline fill="none" stroke="black" points="532.32,-40.88 532.32,-59.88 "/>
<text text-anchor="start" x="519.32" y="-47.28" font-family="sans-serif" font-size="12.00">D</text>
<polygon fill="white" stroke="transparent" points="532.32,-40.88 532.32,-59.88 554.32,-59.88 554.32,-40.88 532.32,-40.88"/>
<polygon fill="none" stroke="black" points="532.32,-40.88 532.32,-59.88 554.32,-59.88 554.32,-40.88 532.32,-40.88"/>
<text text-anchor="start" x="535.32" y="-47.28" font-family="sans-serif" font-size="12.00">CF</text>
<polygon fill="white" stroke="transparent" points="505.07,-610.57 505.07,-629.57 521.07,-629.57 521.07,-610.57 505.07,-610.57"/>
<polyline fill="none" stroke="black" points="521.07,-610.57 521.07,-629.57 "/>
<text text-anchor="start" x="508.07" y="-616.97" font-family="sans-serif" font-size="12.00">U</text>
<polygon fill="white" stroke="transparent" points="521.07,-610.57 521.07,-629.57 576.07,-629.57 576.07,-610.57 521.07,-610.57"/>
<polygon fill="none" stroke="black" points="521.07,-610.57 521.07,-629.57 576.07,-629.57 576.07,-610.57 521.07,-610.57"/>
<text text-anchor="start" x="524.07" y="-616.97" font-family="sans-serif" font-size="12.00">OHS, PL</text>
</g>
<!-- EventSourcingContext&#45;&gt;CustomerManagementContext -->
<g id="edge8" class="edge">
<title>EventSourcingContext&#45;&gt;CustomerManagementContext</title>
<path fill="none" stroke="black" stroke-width="2" d="M575.77,-593.81C532.71,-579.24 487.12,-557.25 454,-524.37 414.44,-485.09 395.4,-422 386.7,-380.4"/>
<text text-anchor="middle" x="529.5" y="-476.62" font-family="sans-serif" font-size="12.00"> &#160;&#160;&#160;&#160;&#160;&#160;&#160;&#160;&#160;&#160;&#160;&#160;&#160;&#160;&#160;&#160;&#160;&#160;&#160;&#160;&#160;&#160;&#160;&#160;&#160;&#160;&#160;&#160;&#160;&#160;&#160;&#160;&#160;&#160;&#160;&#160;&#160;&#160;&#160;</text>
<polygon fill="white" stroke="transparent" points="367.7,-370.4 367.7,-389.4 383.7,-389.4 383.7,-370.4 367.7,-370.4"/>
<polyline fill="none" stroke="black" points="383.7,-370.4 383.7,-389.4 "/>
<text text-anchor="start" x="370.7" y="-376.8" font-family="sans-serif" font-size="12.00">D</text>
<polygon fill="white" stroke="transparent" points="383.7,-370.4 383.7,-389.4 405.7,-389.4 405.7,-370.4 383.7,-370.4"/>
<polygon fill="none" stroke="black" points="383.7,-370.4 383.7,-389.4 405.7,-389.4 405.7,-370.4 383.7,-370.4"/>
<text text-anchor="start" x="386.7" y="-376.8" font-family="sans-serif" font-size="12.00">CF</text>
<polygon fill="white" stroke="transparent" points="540.77,-583.81 540.77,-602.81 556.77,-602.81 556.77,-583.81 540.77,-583.81"/>
<polyline fill="none" stroke="black" points="556.77,-583.81 556.77,-602.81 "/>
<text text-anchor="start" x="543.77" y="-590.21" font-family="sans-serif" font-size="12.00">U</text>
<polygon fill="white" stroke="transparent" points="556.77,-583.81 556.77,-602.81 611.77,-602.81 611.77,-583.81 556.77,-583.81"/>
<polygon fill="none" stroke="black" points="556.77,-583.81 556.77,-602.81 611.77,-602.81 611.77,-583.81 556.77,-583.81"/>
<text text-anchor="start" x="559.77" y="-590.21" font-family="sans-serif" font-size="12.00">OHS, PL</text>
</g>
<!-- ProductCatalogManagementContext -->
<g id="node5" class="node">
<title>ProductCatalogManagementContext</title>
<polygon fill="none" stroke="black" stroke-width="2" points="1423.21,-297.97 1437.06,-296.65 1451.11,-295.45 1465.31,-294.37 1479.61,-293.42 1493.95,-292.6 1508.27,-291.92 1522.53,-291.38 1536.67,-290.97 1550.64,-290.72 1564.39,-290.61 1577.88,-290.64 1591.07,-290.83 1603.91,-291.16 1616.37,-291.64 1628.42,-292.27 1640.02,-293.04 1651.15,-293.95 1661.78,-295 1671.89,-296.19 1681.46,-297.5 1690.47,-298.95 1698.92,-300.51 1706.79,-302.18 1714.08,-303.96 1720.78,-305.85 1726.89,-307.83 1732.42,-309.89 1737.35,-312.04 1741.71,-314.25 1745.5,-316.53 1748.72,-318.86 1751.38,-321.24 1753.5,-323.65 1755.08,-326.09 1756.13,-328.56 1756.68,-331.03 1756.72,-333.51 1756.28,-335.98 1755.36,-338.45 1753.98,-340.89 1752.15,-343.3 1749.87,-345.67 1747.16,-348.01 1744.03,-350.29 1740.49,-352.52 1736.54,-354.69 1732.19,-356.79 1727.45,-358.82 1722.32,-360.77 1716.81,-362.64 1710.92,-364.43 1704.65,-366.13 1698.02,-367.74 1691.02,-369.25 1683.65,-370.67 1675.92,-371.99 1667.84,-373.21 1659.4,-374.33 1650.62,-375.34 1641.49,-376.26 1632.02,-377.07 1622.23,-377.77 1612.12,-378.38 1601.7,-378.88 1590.99,-379.28 1580,-379.58 1568.74,-379.77 1557.23,-379.87 1545.51,-379.87 1533.58,-379.77 1521.47,-379.57 1509.21,-379.28 1496.84,-378.89 1484.37,-378.41 1471.86,-377.84 1459.32,-377.17 1446.81,-376.42 1434.36,-375.58 1422.01,-374.66 1409.81,-373.65 1397.8,-372.55 1386.02,-371.38 1374.52,-370.12 1363.36,-368.79 1352.56,-367.38 1342.19,-365.89 1332.28,-364.33 1322.89,-362.7 1314.05,-361.01 1305.8,-359.25 1298.2,-357.42 1291.28,-355.54 1285.07,-353.6 1279.61,-351.6 1274.93,-349.56 1271.05,-347.47 1268.01,-345.34 1265.82,-343.17 1264.5,-340.97 1264.06,-338.74 1264.51,-336.49 1265.85,-334.22 1268.09,-331.94 1271.22,-329.65 1275.23,-327.37 1280.11,-325.09 1285.85,-322.83 1292.41,-320.59 1299.78,-318.38 1307.93,-316.2 1316.81,-314.07 1326.41,-311.99 1336.67,-309.96 1347.55,-308 1359.01,-306.1 1371,-304.29 1383.47,-302.57 1396.36,-300.93 1409.63,-299.4 1423.21,-297.97"/>
<text text-anchor="middle" x="1529" y="-333.7" font-family="sans-serif" font-size="16.00">ProductCatalogManagementContext</text>
</g>
<!-- EventSourcingContext&#45;&gt;ProductCatalogManagementContext -->
<g id="edge6" class="edge">
<title>EventSourcingContext&#45;&gt;ProductCatalogManagementContext</title>
<path fill="none" stroke="black" stroke-width="2" d="M850.09,-612.28C1066.07,-598.1 1446.93,-567.33 1493,-524.37 1532.18,-487.83 1536.06,-422.46 1533.71,-379.8"/>
<text text-anchor="middle" x="1606.5" y="-476.62" font-family="sans-serif" font-size="12.00"> &#160;&#160;&#160;&#160;&#160;&#160;&#160;&#160;&#160;&#160;&#160;&#160;&#160;&#160;&#160;&#160;&#160;&#160;&#160;&#160;&#160;&#160;&#160;&#160;&#160;&#160;&#160;&#160;&#160;&#160;&#160;&#160;&#160;&#160;&#160;&#160;&#160;&#160;&#160;</text>
<polygon fill="white" stroke="transparent" points="1514.71,-369.8 1514.71,-388.8 1530.71,-388.8 1530.71,-369.8 1514.71,-369.8"/>
<polyline fill="none" stroke="black" points="1530.71,-369.8 1530.71,-388.8 "/>
<text text-anchor="start" x="1517.71" y="-376.2" font-family="sans-serif" font-size="12.00">D</text>
<polygon fill="white" stroke="transparent" points="1530.71,-369.8 1530.71,-388.8 1552.71,-388.8 1552.71,-369.8 1530.71,-369.8"/>
<polygon fill="none" stroke="black" points="1530.71,-369.8 1530.71,-388.8 1552.71,-388.8 1552.71,-369.8 1530.71,-369.8"/>
<text text-anchor="start" x="1533.71" y="-376.2" font-family="sans-serif" font-size="12.00">CF</text>
<polygon fill="white" stroke="transparent" points="815.09,-602.28 815.09,-621.28 831.09,-621.28 831.09,-602.28 815.09,-602.28"/>
<polyline fill="none" stroke="black" points="831.09,-602.28 831.09,-621.28 "/>
<text text-anchor="start" x="818.09" y="-608.68" font-family="sans-serif" font-size="12.00">U</text>
<polygon fill="white" stroke="transparent" points="831.09,-602.28 831.09,-621.28 886.09,-621.28 886.09,-602.28 831.09,-602.28"/>
<polygon fill="none" stroke="black" points="831.09,-602.28 831.09,-621.28 886.09,-621.28 886.09,-602.28 831.09,-602.28"/>
<text text-anchor="start" x="834.09" y="-608.68" font-family="sans-serif" font-size="12.00">OHS, PL</text>
</g>
<!-- ProductRegistryManagementContext -->
<g id="node7" class="node">
<title>ProductRegistryManagementContext</title>
<polygon fill="none" stroke="black" stroke-width="2" points="1179.86,-436.23 1195.34,-435.72 1210.83,-435.33 1226.28,-435.07 1241.61,-434.94 1256.77,-434.93 1271.7,-435.05 1286.34,-435.3 1300.64,-435.69 1314.55,-436.2 1328.01,-436.83 1340.99,-437.6 1353.43,-438.49 1365.31,-439.5 1376.59,-440.64 1387.23,-441.89 1397.21,-443.25 1406.5,-444.72 1415.1,-446.3 1422.97,-447.98 1430.12,-449.76 1436.53,-451.62 1442.2,-453.57 1447.14,-455.59 1451.33,-457.69 1454.8,-459.85 1457.55,-462.07 1459.59,-464.35 1460.95,-466.66 1461.62,-469.01 1461.65,-471.39 1461.04,-473.79 1459.82,-476.21 1458.01,-478.63 1455.64,-481.05 1452.73,-483.46 1449.31,-485.86 1445.39,-488.23 1441.02,-490.57 1436.21,-492.87 1430.98,-495.12 1425.36,-497.33 1419.37,-499.48 1413.03,-501.56 1406.36,-503.57 1399.38,-505.51 1392.1,-507.37 1384.55,-509.14 1376.73,-510.82 1368.66,-512.41 1360.34,-513.9 1351.8,-515.29 1343.04,-516.58 1334.06,-517.75 1324.88,-518.82 1315.5,-519.78 1305.93,-520.62 1296.17,-521.35 1286.24,-521.96 1276.13,-522.45 1265.85,-522.83 1255.41,-523.1 1244.82,-523.24 1234.09,-523.27 1223.22,-523.19 1212.23,-522.99 1201.14,-522.68 1189.94,-522.26 1178.68,-521.73 1167.35,-521.09 1155.98,-520.35 1144.6,-519.51 1133.22,-518.57 1121.88,-517.53 1110.61,-516.39 1099.43,-515.17 1088.38,-513.86 1077.49,-512.46 1066.8,-510.99 1056.34,-509.44 1046.16,-507.81 1036.3,-506.12 1026.8,-504.36 1017.69,-502.53 1009.03,-500.66 1000.85,-498.72 993.2,-496.74 986.11,-494.72 979.63,-492.66 973.8,-490.56 968.65,-488.43 964.21,-486.27 960.53,-484.1 957.63,-481.91 955.53,-479.71 954.27,-477.5 953.86,-475.3 954.32,-473.1 955.66,-470.9 957.9,-468.73 961.03,-466.58 965.06,-464.45 969.98,-462.35 975.78,-460.3 982.45,-458.28 989.97,-456.32 998.31,-454.41 1007.46,-452.56 1017.38,-450.77 1028.03,-449.06 1039.37,-447.42 1051.36,-445.86 1063.96,-444.39 1077.11,-443.01 1090.75,-441.72 1104.84,-440.53 1119.32,-439.45 1134.12,-438.48 1149.18,-437.61 1164.45,-436.86 1179.86,-436.23"/>
<text text-anchor="middle" x="1219" y="-475.92" font-family="sans-serif" font-size="16.00">ProductRegistryManagementContext</text>
</g>
<!-- EventSourcingContext&#45;&gt;ProductRegistryManagementContext -->
<g id="edge7" class="edge">
<title>EventSourcingContext&#45;&gt;ProductRegistryManagementContext</title>
<path fill="none" stroke="black" stroke-width="2" d="M810.07,-591.72C892.95,-569.23 1007.48,-538.14 1094.26,-514.58"/>
<text text-anchor="middle" x="1066.5" y="-545.77" font-family="sans-serif" font-size="12.00"> &#160;&#160;&#160;&#160;&#160;&#160;&#160;&#160;&#160;&#160;&#160;&#160;&#160;&#160;&#160;&#160;&#160;&#160;&#160;&#160;&#160;&#160;&#160;&#160;&#160;&#160;&#160;&#160;&#160;&#160;&#160;&#160;&#160;&#160;&#160;&#160;&#160;&#160;&#160;</text>
<polygon fill="white" stroke="transparent" points="1075.26,-504.58 1075.26,-523.58 1091.26,-523.58 1091.26,-504.58 1075.26,-504.58"/>
<polyline fill="none" stroke="black" points="1091.26,-504.58 1091.26,-523.58 "/>
<text text-anchor="start" x="1078.26" y="-510.98" font-family="sans-serif" font-size="12.00">D</text>
<polygon fill="white" stroke="transparent" points="1091.26,-504.58 1091.26,-523.58 1113.26,-523.58 1113.26,-504.58 1091.26,-504.58"/>
<polygon fill="none" stroke="black" points="1091.26,-504.58 1091.26,-523.58 1113.26,-523.58 1113.26,-504.58 1091.26,-504.58"/>
<text text-anchor="start" x="1094.26" y="-510.98" font-family="sans-serif" font-size="12.00">CF</text>
<polygon fill="white" stroke="transparent" points="775.07,-581.72 775.07,-600.72 791.07,-600.72 791.07,-581.72 775.07,-581.72"/>
<polyline fill="none" stroke="black" points="791.07,-581.72 791.07,-600.72 "/>
<text text-anchor="start" x="778.07" y="-588.12" font-family="sans-serif" font-size="12.00">U</text>
<polygon fill="white" stroke="transparent" points="791.07,-581.72 791.07,-600.72 846.07,-600.72 846.07,-581.72 791.07,-581.72"/>
<polygon fill="none" stroke="black" points="791.07,-581.72 791.07,-600.72 846.07,-600.72 846.07,-581.72 791.07,-581.72"/>
<text text-anchor="start" x="794.07" y="-588.12" font-family="sans-serif" font-size="12.00">OHS, PL</text>
</g>
<!-- StockManagementContext -->
<g id="node8" class="node">
<title>StockManagementContext</title>
<polygon fill="none" stroke="black" stroke-width="2" points="655.31,-346.92 652.58,-344.12 650.36,-341.31 648.66,-338.5 647.49,-335.71 646.86,-332.95 646.77,-330.21 647.23,-327.53 648.24,-324.9 649.8,-322.33 651.91,-319.84 654.57,-317.44 657.76,-315.12 661.49,-312.9 665.74,-310.78 670.5,-308.77 675.75,-306.88 681.49,-305.11 687.69,-303.45 694.34,-301.93 701.41,-300.53 708.88,-299.26 716.73,-298.13 724.93,-297.12 733.45,-296.25 742.28,-295.5 751.37,-294.88 760.71,-294.39 770.25,-294.02 779.97,-293.78 789.83,-293.65 799.81,-293.63 809.87,-293.73 819.97,-293.93 830.1,-294.24 840.21,-294.64 850.27,-295.14 860.25,-295.73 870.12,-296.41 879.85,-297.17 889.41,-298 898.77,-298.92 907.91,-299.9 916.79,-300.94 925.4,-302.06 933.71,-303.23 941.7,-304.46 949.35,-305.75 956.63,-307.09 963.53,-308.48 970.04,-309.92 976.14,-311.4 981.81,-312.93 987.05,-314.51 991.84,-316.13 996.17,-317.79 1000.04,-319.5 1003.45,-321.24 1006.38,-323.02 1008.84,-324.84 1010.82,-326.7 1012.32,-328.59 1013.35,-330.51 1013.91,-332.47 1013.99,-334.46 1013.61,-336.47 1012.76,-338.52 1011.46,-340.58 1009.71,-342.66 1007.53,-344.77 1004.91,-346.88 1001.86,-349 998.41,-351.13 994.55,-353.25 990.3,-355.37 985.67,-357.47 980.68,-359.56 975.33,-361.62 969.64,-363.65 963.62,-365.63 957.29,-367.58 950.66,-369.47 943.74,-371.29 936.55,-373.05 929.11,-374.73 921.43,-376.32 913.53,-377.82 905.42,-379.22 897.13,-380.51 888.66,-381.69 880.04,-382.74 871.29,-383.66 862.42,-384.45 853.46,-385.09 844.42,-385.59 835.33,-385.93 826.2,-386.12 817.06,-386.15 807.93,-386.02 798.82,-385.73 789.77,-385.27 780.8,-384.65 771.92,-383.86 763.17,-382.91 754.56,-381.79 746.11,-380.52 737.87,-379.1 729.83,-377.53 722.04,-375.81 714.51,-373.96 707.26,-371.97 700.33,-369.86 693.72,-367.64 687.47,-365.32 681.6,-362.89 676.12,-360.38 671.05,-357.8 666.42,-355.15 662.24,-352.44 658.53,-349.69 655.31,-346.92"/>
<text text-anchor="middle" x="834" y="-333.7" font-family="sans-serif" font-size="16.00">StockManagementContext</text>
</g>
<!-- EventSourcingContext&#45;&gt;StockManagementContext -->
<g id="edge9" class="edge">
<title>EventSourcingContext&#45;&gt;StockManagementContext</title>
<path fill="none" stroke="black" stroke-width="2" d="M723.8,-574.4C748.11,-522.36 787.23,-438.62 811.73,-386.17"/>
<text text-anchor="middle" x="863.5" y="-476.62" font-family="sans-serif" font-size="12.00"> &#160;&#160;&#160;&#160;&#160;&#160;&#160;&#160;&#160;&#160;&#160;&#160;&#160;&#160;&#160;&#160;&#160;&#160;&#160;&#160;&#160;&#160;&#160;&#160;&#160;&#160;&#160;&#160;&#160;&#160;&#160;&#160;&#160;&#160;&#160;&#160;&#160;&#160;&#160;</text>
<polygon fill="white" stroke="transparent" points="792.73,-376.17 792.73,-395.17 808.73,-395.17 808.73,-376.17 792.73,-376.17"/>
<polyline fill="none" stroke="black" points="808.73,-376.17 808.73,-395.17 "/>
<text text-anchor="start" x="795.73" y="-382.57" font-family="sans-serif" font-size="12.00">D</text>
<polygon fill="white" stroke="transparent" points="808.73,-376.17 808.73,-395.17 830.73,-395.17 830.73,-376.17 808.73,-376.17"/>
<polygon fill="none" stroke="black" points="808.73,-376.17 808.73,-395.17 830.73,-395.17 830.73,-376.17 808.73,-376.17"/>
<text text-anchor="start" x="811.73" y="-382.57" font-family="sans-serif" font-size="12.00">CF</text>
<polygon fill="white" stroke="transparent" points="688.8,-564.4 688.8,-583.4 704.8,-583.4 704.8,-564.4 688.8,-564.4"/>
<polyline fill="none" stroke="black" points="704.8,-564.4 704.8,-583.4 "/>
<text text-anchor="start" x="691.8" y="-570.8" font-family="sans-serif" font-size="12.00">U</text>
<polygon fill="white" stroke="transparent" points="704.8,-564.4 704.8,-583.4 759.8,-583.4 759.8,-564.4 704.8,-564.4"/>
<polygon fill="none" stroke="black" points="704.8,-564.4 704.8,-583.4 759.8,-583.4 759.8,-564.4 704.8,-564.4"/>
<text text-anchor="start" x="707.8" y="-570.8" font-family="sans-serif" font-size="12.00">OHS, PL</text>
</g>
<!-- MoneyContext -->
<g id="node6" class="node">
<title>MoneyContext</title>
<polygon fill="none" stroke="black" stroke-width="2" points="1542.21,-149.73 1549.63,-150.02 1556.97,-150.42 1564.19,-150.95 1571.28,-151.59 1578.19,-152.34 1584.91,-153.21 1591.4,-154.18 1597.65,-155.26 1603.62,-156.45 1609.3,-157.73 1614.67,-159.11 1619.71,-160.59 1624.4,-162.15 1628.73,-163.8 1632.69,-165.53 1636.26,-167.33 1639.45,-169.2 1642.24,-171.14 1644.63,-173.14 1646.62,-175.19 1648.21,-177.29 1649.41,-179.44 1650.21,-181.62 1650.62,-183.83 1650.66,-186.07 1650.33,-188.33 1649.64,-190.6 1648.6,-192.88 1647.23,-195.16 1645.54,-197.44 1643.55,-199.7 1641.27,-201.95 1638.72,-204.17 1635.91,-206.36 1632.86,-208.52 1629.59,-210.63 1626.12,-212.7 1622.45,-214.71 1618.62,-216.67 1614.62,-218.56 1610.49,-220.39 1606.22,-222.14 1601.85,-223.81 1597.37,-225.4 1592.8,-226.9 1588.16,-228.31 1583.45,-229.62 1578.69,-230.84 1573.88,-231.95 1569.02,-232.96 1564.14,-233.86 1559.23,-234.64 1554.29,-235.32 1549.35,-235.88 1544.39,-236.32 1539.43,-236.64 1534.46,-236.85 1529.49,-236.94 1524.53,-236.9 1519.58,-236.75 1514.63,-236.48 1509.7,-236.09 1504.78,-235.58 1499.89,-234.95 1495.02,-234.21 1490.19,-233.36 1485.39,-232.4 1480.63,-231.33 1475.92,-230.15 1471.27,-228.87 1466.68,-227.5 1462.17,-226.03 1457.74,-224.46 1453.41,-222.82 1449.19,-221.09 1445.09,-219.28 1441.12,-217.4 1437.3,-215.46 1433.65,-213.45 1430.17,-211.39 1426.88,-209.27 1423.81,-207.12 1420.96,-204.92 1418.35,-202.69 1416,-200.44 1413.93,-198.16 1412.14,-195.87 1410.66,-193.58 1409.5,-191.28 1408.67,-188.99 1408.19,-186.71 1408.06,-184.45 1408.3,-182.21 1408.92,-180 1409.92,-177.83 1411.31,-175.71 1413.09,-173.63 1415.27,-171.6 1417.84,-169.64 1420.8,-167.74 1424.16,-165.91 1427.89,-164.15 1432.01,-162.48 1436.48,-160.89 1441.31,-159.39 1446.48,-157.99 1451.97,-156.68 1457.77,-155.47 1463.85,-154.37 1470.19,-153.37 1476.77,-152.48 1483.56,-151.71 1490.54,-151.05 1497.68,-150.5 1504.94,-150.08 1512.32,-149.77 1519.76,-149.58 1527.24,-149.51 1534.73,-149.56 1542.21,-149.73"/>
<text text-anchor="middle" x="1529" y="-189.43" font-family="sans-serif" font-size="16.00">MoneyContext</text>
</g>
<!-- ProductCatalogManagementContext&#45;&gt;MoneyContext -->
<g id="edge10" class="edge">
<title>ProductCatalogManagementContext&#45;&gt;MoneyContext</title>
<path fill="none" stroke="black" stroke-width="2" d="M1529,-291.09C1529,-273.85 1529,-254.28 1529,-237.27"/>
<text text-anchor="middle" x="1571" y="-261.32" font-family="sans-serif" font-size="12.00">Shared Kernel</text>
</g>
<!-- ProductRegistryManagementContext&#45;&gt;CartManagementContext -->
<g id="edge14" class="edge">
<title>ProductRegistryManagementContext&#45;&gt;CartManagementContext</title>
<path fill="none" stroke="black" stroke-width="2" d="M1134.94,-438.34C1111.97,-424.27 1088.59,-406.73 1071,-386.08 1040.61,-350.39 1065.05,-320.03 1030,-288.92 1013.91,-274.65 910.83,-246.24 824.28,-224.24"/>
<text text-anchor="middle" x="1146.5" y="-334.4" font-family="sans-serif" font-size="12.00"> &#160;&#160;&#160;&#160;&#160;&#160;&#160;&#160;&#160;&#160;&#160;&#160;&#160;&#160;&#160;&#160;&#160;&#160;&#160;&#160;&#160;&#160;&#160;&#160;&#160;&#160;&#160;&#160;&#160;&#160;&#160;&#160;&#160;&#160;&#160;&#160;&#160;&#160;&#160;</text>
<polygon fill="white" stroke="transparent" points="805.28,-214.24 805.28,-233.24 821.28,-233.24 821.28,-214.24 805.28,-214.24"/>
<polyline fill="none" stroke="black" points="821.28,-214.24 821.28,-233.24 "/>
<text text-anchor="start" x="808.28" y="-220.64" font-family="sans-serif" font-size="12.00">D</text>
<polygon fill="white" stroke="transparent" points="821.28,-214.24 821.28,-233.24 843.28,-233.24 843.28,-214.24 821.28,-214.24"/>
<polygon fill="none" stroke="black" points="821.28,-214.24 821.28,-233.24 843.28,-233.24 843.28,-214.24 821.28,-214.24"/>
<text text-anchor="start" x="824.28" y="-220.64" font-family="sans-serif" font-size="12.00">CF</text>
<polygon fill="white" stroke="transparent" points="1099.94,-428.34 1099.94,-447.34 1115.94,-447.34 1115.94,-428.34 1099.94,-428.34"/>
<polyline fill="none" stroke="black" points="1115.94,-428.34 1115.94,-447.34 "/>
<text text-anchor="start" x="1102.94" y="-434.74" font-family="sans-serif" font-size="12.00">U</text>
<polygon fill="white" stroke="transparent" points="1115.94,-428.34 1115.94,-447.34 1170.94,-447.34 1170.94,-428.34 1115.94,-428.34"/>
<polygon fill="none" stroke="black" points="1115.94,-428.34 1115.94,-447.34 1170.94,-447.34 1170.94,-428.34 1115.94,-428.34"/>
<text text-anchor="start" x="1118.94" y="-434.74" font-family="sans-serif" font-size="12.00">OHS, PL</text>
</g>
<!-- ProductRegistryManagementContext&#45;&gt;OrderProcessingContext -->
<g id="edge12" class="edge">
<title>ProductRegistryManagementContext&#45;&gt;OrderProcessingContext</title>
<path fill="none" stroke="black" stroke-width="2" d="M1227.92,-434.83C1234.01,-395.5 1238.34,-336.8 1222,-288.92 1196.17,-213.24 1179.23,-189.83 1112,-146.53 1041.28,-100.99 951.38,-76.83 873.7,-64.04"/>
<text text-anchor="middle" x="1290.5" y="-261.32" font-family="sans-serif" font-size="12.00"> &#160;&#160;&#160;&#160;&#160;&#160;&#160;&#160;&#160;&#160;&#160;&#160;&#160;&#160;&#160;&#160;&#160;&#160;&#160;&#160;&#160;&#160;&#160;&#160;&#160;&#160;&#160;&#160;&#160;&#160;&#160;&#160;&#160;&#160;&#160;&#160;&#160;&#160;&#160;</text>
<polygon fill="white" stroke="transparent" points="854.7,-54.04 854.7,-73.04 870.7,-73.04 870.7,-54.04 854.7,-54.04"/>
<polyline fill="none" stroke="black" points="870.7,-54.04 870.7,-73.04 "/>
<text text-anchor="start" x="857.7" y="-60.44" font-family="sans-serif" font-size="12.00">D</text>
<polygon fill="white" stroke="transparent" points="870.7,-54.04 870.7,-73.04 892.7,-73.04 892.7,-54.04 870.7,-54.04"/>
<polygon fill="none" stroke="black" points="870.7,-54.04 870.7,-73.04 892.7,-73.04 892.7,-54.04 870.7,-54.04"/>
<text text-anchor="start" x="873.7" y="-60.44" font-family="sans-serif" font-size="12.00">CF</text>
<polygon fill="white" stroke="transparent" points="1192.92,-424.83 1192.92,-443.83 1208.92,-443.83 1208.92,-424.83 1192.92,-424.83"/>
<polyline fill="none" stroke="black" points="1208.92,-424.83 1208.92,-443.83 "/>
<text text-anchor="start" x="1195.92" y="-431.23" font-family="sans-serif" font-size="12.00">U</text>
<polygon fill="white" stroke="transparent" points="1208.92,-424.83 1208.92,-443.83 1263.92,-443.83 1263.92,-424.83 1208.92,-424.83"/>
<polygon fill="none" stroke="black" points="1208.92,-424.83 1208.92,-443.83 1263.92,-443.83 1263.92,-424.83 1208.92,-424.83"/>
<text text-anchor="start" x="1211.92" y="-431.23" font-family="sans-serif" font-size="12.00">OHS, PL</text>
</g>
<!-- ProductRegistryManagementContext&#45;&gt;ProductCatalogManagementContext -->
<g id="edge11" class="edge">
<title>ProductRegistryManagementContext&#45;&gt;ProductCatalogManagementContext</title>
<path fill="none" stroke="black" stroke-width="2" d="M1295.91,-435.56C1316.18,-424.78 1338.21,-413.59 1359,-404.08 1381.01,-394.01 1405.04,-384.1 1427.93,-375.16"/>
<text text-anchor="middle" x="1434.5" y="-407.48" font-family="sans-serif" font-size="12.00"> &#160;&#160;&#160;&#160;&#160;&#160;&#160;&#160;&#160;&#160;&#160;&#160;&#160;&#160;&#160;&#160;&#160;&#160;&#160;&#160;&#160;&#160;&#160;&#160;&#160;&#160;&#160;&#160;&#160;&#160;&#160;&#160;&#160;&#160;&#160;&#160;&#160;&#160;&#160;</text>
<polygon fill="white" stroke="transparent" points="1408.93,-365.16 1408.93,-384.16 1424.93,-384.16 1424.93,-365.16 1408.93,-365.16"/>
<polyline fill="none" stroke="black" points="1424.93,-365.16 1424.93,-384.16 "/>
<text text-anchor="start" x="1411.93" y="-371.56" font-family="sans-serif" font-size="12.00">D</text>
<polygon fill="white" stroke="transparent" points="1424.93,-365.16 1424.93,-384.16 1446.93,-384.16 1446.93,-365.16 1424.93,-365.16"/>
<polygon fill="none" stroke="black" points="1424.93,-365.16 1424.93,-384.16 1446.93,-384.16 1446.93,-365.16 1424.93,-365.16"/>
<text text-anchor="start" x="1427.93" y="-371.56" font-family="sans-serif" font-size="12.00">CF</text>
<polygon fill="white" stroke="transparent" points="1260.91,-425.56 1260.91,-444.56 1276.91,-444.56 1276.91,-425.56 1260.91,-425.56"/>
<polyline fill="none" stroke="black" points="1276.91,-425.56 1276.91,-444.56 "/>
<text text-anchor="start" x="1263.91" y="-431.96" font-family="sans-serif" font-size="12.00">U</text>
<polygon fill="white" stroke="transparent" points="1276.91,-425.56 1276.91,-444.56 1331.91,-444.56 1331.91,-425.56 1276.91,-425.56"/>
<polygon fill="none" stroke="black" points="1276.91,-425.56 1276.91,-444.56 1331.91,-444.56 1331.91,-425.56 1276.91,-425.56"/>
<text text-anchor="start" x="1279.91" y="-431.96" font-family="sans-serif" font-size="12.00">OHS, PL</text>
</g>
<!-- ProductRegistryManagementContext&#45;&gt;StockManagementContext -->
<g id="edge13" class="edge">
<title>ProductRegistryManagementContext&#45;&gt;StockManagementContext</title>
<path fill="none" stroke="black" stroke-width="2" d="M1029.38,-448.81C964.64,-437.47 905.12,-425.31 892,-417.08 879.22,-409.05 868.32,-397.11 859.53,-384.94"/>
<text text-anchor="middle" x="967.5" y="-407.48" font-family="sans-serif" font-size="12.00"> &#160;&#160;&#160;&#160;&#160;&#160;&#160;&#160;&#160;&#160;&#160;&#160;&#160;&#160;&#160;&#160;&#160;&#160;&#160;&#160;&#160;&#160;&#160;&#160;&#160;&#160;&#160;&#160;&#160;&#160;&#160;&#160;&#160;&#160;&#160;&#160;&#160;&#160;&#160;</text>
<polygon fill="white" stroke="transparent" points="840.53,-374.94 840.53,-393.94 856.53,-393.94 856.53,-374.94 840.53,-374.94"/>
<polyline fill="none" stroke="black" points="856.53,-374.94 856.53,-393.94 "/>
<text text-anchor="start" x="843.53" y="-381.34" font-family="sans-serif" font-size="12.00">D</text>
<polygon fill="white" stroke="transparent" points="856.53,-374.94 856.53,-393.94 878.53,-393.94 878.53,-374.94 856.53,-374.94"/>
<polygon fill="none" stroke="black" points="856.53,-374.94 856.53,-393.94 878.53,-393.94 878.53,-374.94 856.53,-374.94"/>
<text text-anchor="start" x="859.53" y="-381.34" font-family="sans-serif" font-size="12.00">CF</text>
<polygon fill="white" stroke="transparent" points="994.38,-438.81 994.38,-457.81 1010.38,-457.81 1010.38,-438.81 994.38,-438.81"/>
<polyline fill="none" stroke="black" points="1010.38,-438.81 1010.38,-457.81 "/>
<text text-anchor="start" x="997.38" y="-445.21" font-family="sans-serif" font-size="12.00">U</text>
<polygon fill="white" stroke="transparent" points="1010.38,-438.81 1010.38,-457.81 1065.38,-457.81 1065.38,-438.81 1010.38,-438.81"/>
<polygon fill="none" stroke="black" points="1010.38,-438.81 1010.38,-457.81 1065.38,-457.81 1065.38,-438.81 1010.38,-438.81"/>
<text text-anchor="start" x="1013.38" y="-445.21" font-family="sans-serif" font-size="12.00">OHS, PL</text>
</g>
<!-- StockManagementContext&#45;&gt;CartManagementContext -->
<g id="edge16" class="edge">
<title>StockManagementContext&#45;&gt;CartManagementContext</title>
<path fill="none" stroke="black" stroke-width="2" d="M789.14,-293.63C781.63,-286.17 774.01,-278.4 767,-270.92 756.06,-259.26 744.56,-246.2 734.28,-234.21"/>
<text text-anchor="middle" x="842.5" y="-261.32" font-family="sans-serif" font-size="12.00"> &#160;&#160;&#160;&#160;&#160;&#160;&#160;&#160;&#160;&#160;&#160;&#160;&#160;&#160;&#160;&#160;&#160;&#160;&#160;&#160;&#160;&#160;&#160;&#160;&#160;&#160;&#160;&#160;&#160;&#160;&#160;&#160;&#160;&#160;&#160;&#160;&#160;&#160;&#160;</text>
<polygon fill="white" stroke="transparent" points="715.28,-224.21 715.28,-243.21 731.28,-243.21 731.28,-224.21 715.28,-224.21"/>
<polyline fill="none" stroke="black" points="731.28,-224.21 731.28,-243.21 "/>
<text text-anchor="start" x="718.28" y="-230.61" font-family="sans-serif" font-size="12.00">D</text>
<polygon fill="white" stroke="transparent" points="731.28,-224.21 731.28,-243.21 753.28,-243.21 753.28,-224.21 731.28,-224.21"/>
<polygon fill="none" stroke="black" points="731.28,-224.21 731.28,-243.21 753.28,-243.21 753.28,-224.21 731.28,-224.21"/>
<text text-anchor="start" x="734.28" y="-230.61" font-family="sans-serif" font-size="12.00">CF</text>
<polygon fill="white" stroke="transparent" points="754.14,-283.63 754.14,-302.63 770.14,-302.63 770.14,-283.63 754.14,-283.63"/>
<polyline fill="none" stroke="black" points="770.14,-283.63 770.14,-302.63 "/>
<text text-anchor="start" x="757.14" y="-290.03" font-family="sans-serif" font-size="12.00">U</text>
<polygon fill="white" stroke="transparent" points="770.14,-283.63 770.14,-302.63 825.14,-302.63 825.14,-283.63 770.14,-283.63"/>
<polygon fill="none" stroke="black" points="770.14,-283.63 770.14,-302.63 825.14,-302.63 825.14,-283.63 770.14,-283.63"/>
<text text-anchor="start" x="773.14" y="-290.03" font-family="sans-serif" font-size="12.00">OHS, PL</text>
</g>
<!-- StockManagementContext&#45;&gt;OrderProcessingContext -->
<g id="edge15" class="edge">
<title>StockManagementContext&#45;&gt;OrderProcessingContext</title>
<path fill="none" stroke="black" stroke-width="2" d="M896.94,-298.36C905.45,-290.39 912.97,-281.23 918,-270.92 932.46,-241.29 1011.71,-316.2 905,-146.53 887.36,-118.49 859.15,-98.42 829.25,-84.11"/>
<text text-anchor="middle" x="1032.5" y="-190.13" font-family="sans-serif" font-size="12.00"> &#160;&#160;&#160;&#160;&#160;&#160;&#160;&#160;&#160;&#160;&#160;&#160;&#160;&#160;&#160;&#160;&#160;&#160;&#160;&#160;&#160;&#160;&#160;&#160;&#160;&#160;&#160;&#160;&#160;&#160;&#160;&#160;&#160;&#160;&#160;&#160;&#160;&#160;&#160;</text>
<polygon fill="white" stroke="transparent" points="810.25,-74.11 810.25,-93.11 826.25,-93.11 826.25,-74.11 810.25,-74.11"/>
<polyline fill="none" stroke="black" points="826.25,-74.11 826.25,-93.11 "/>
<text text-anchor="start" x="813.25" y="-80.51" font-family="sans-serif" font-size="12.00">D</text>
<polygon fill="white" stroke="transparent" points="826.25,-74.11 826.25,-93.11 848.25,-93.11 848.25,-74.11 826.25,-74.11"/>
<polygon fill="none" stroke="black" points="826.25,-74.11 826.25,-93.11 848.25,-93.11 848.25,-74.11 826.25,-74.11"/>
<text text-anchor="start" x="829.25" y="-80.51" font-family="sans-serif" font-size="12.00">CF</text>
<polygon fill="white" stroke="transparent" points="861.94,-288.36 861.94,-307.36 877.94,-307.36 877.94,-288.36 861.94,-288.36"/>
<polyline fill="none" stroke="black" points="877.94,-288.36 877.94,-307.36 "/>
<text text-anchor="start" x="864.94" y="-294.76" font-family="sans-serif" font-size="12.00">U</text>
<polygon fill="white" stroke="transparent" points="877.94,-288.36 877.94,-307.36 932.94,-307.36 932.94,-288.36 877.94,-288.36"/>
<polygon fill="none" stroke="black" points="877.94,-288.36 877.94,-307.36 932.94,-307.36 932.94,-288.36 877.94,-288.36"/>
<text text-anchor="start" x="880.94" y="-294.76" font-family="sans-serif" font-size="12.00">OHS, PL</text>
</g>
</g>
</svg>
